<svg xmlns="http://www.w3.org/2000/svg" xmlns:xlink="http://www.w3.org/1999/xlink" width="36" height="36">
  <defs>
    <path id="a" d="M562.006 109.496c-9.653 0-17.505-7.848-17.505-17.494s7.852-17.493 17.505-17.493c9.652 0 17.504 7.847 17.504 17.493 0 9.646-7.852 17.494-17.504 17.494zm0-32.902c-8.502 0-15.418 6.912-15.418 15.408 0 8.497 6.916 15.409 15.418 15.409 8.501 0 15.418-6.912 15.418-15.409 0-8.496-6.917-15.408-15.418-15.408zm10.05 10.367v10.083a3.16 3.16 0 0 1-3.158 3.155h-13.785a3.16 3.16 0 0 1-3.157-3.155V86.96a3.16 3.16 0 0 1 3.157-3.155h13.785a3.16 3.16 0 0 1 3.157 3.155zm-2.087 10.083v-.682h-6.389a4.391 4.391 0 0 1-4.387-4.385 4.392 4.392 0 0 1 4.387-4.385h6.389v-.63c0-.59-.48-1.07-1.07-1.07h-13.786c-.59 0-1.07.48-1.07 1.07v10.082c0 .59.48 1.07 1.07 1.07h13.785c.59 0 1.07-.48 1.07-1.07zm-6.389-7.367a2.303 2.303 0 0 0-2.3 2.3c0 1.268 1.032 2.3 2.3 2.3h6.389v-4.6zm.208 1.317a.983.983 0 1 1 0 1.967.983.983 0 0 1 0-1.967z"/>
  </defs>
  <use fill="#000" xlink:href="#a" transform="translate(-544 -74)"/>
</svg>
