<svg xmlns="http://www.w3.org/2000/svg" xmlns:xlink="http://www.w3.org/1999/xlink" width="36" height="36">
  <defs>
    <path id="a" d="M348.982 109.485c-9.648 0-17.497-7.85-17.497-17.498 0-9.648 7.85-17.497 17.497-17.497 9.648 0 17.498 7.849 17.498 17.497s-7.85 17.498-17.498 17.498zm0-32.91c-5.067 0-9.572 2.46-12.382 6.246h10.053v4.967h4.35l4.439 7.493v4.696h-2.663a2.663 2.663 0 0 1-5.326 0h-11.645c2.706 4.447 7.6 7.422 13.174 7.422 8.498 0 15.412-6.914 15.412-15.412 0-8.498-6.914-15.412-15.412-15.412zm-15.411 15.412c0 2.279.497 4.444 1.389 6.392h10.095V84.42h-9.495a15.317 15.317 0 0 0-1.99 7.568zm14.37 1.896V91.41h1.931l1.431 2.473zm-1.199 4.496h1.255a2.65 2.65 0 0 1 2.119-1.065 2.65 2.65 0 0 1 2.118 1.065h1.61v-2.66l-3.752-6.333h-3.35z"/>
  </defs>
  <use fill="#000" xlink:href="#a" transform="translate(-331 -74)"/>
</svg>
