<svg xmlns="http://www.w3.org/2000/svg" xmlns:xlink="http://www.w3.org/1999/xlink" width="36" height="36">
  <defs>
    <path id="a" d="M762.58 97.782l-6.52-6.52 1.677-1.678 4.707 4.708 6.899-8.057 1.803 1.543zm.403 11.703c-9.648 0-17.498-7.85-17.498-17.498 0-9.648 7.85-17.497 17.498-17.497 9.648 0 17.497 7.849 17.497 17.497 0 9.649-7.849 17.498-17.497 17.498zm0-32.91c-8.498 0-15.412 6.914-15.412 15.412 0 8.498 6.914 15.412 15.412 15.412 8.498 0 15.411-6.914 15.411-15.412 0-8.498-6.913-15.411-15.411-15.411z"/>
  </defs>
  <use fill="#000" xlink:href="#a" transform="translate(-745 -74)"/>
</svg>
