<svg xmlns="http://www.w3.org/2000/svg" xmlns:xlink="http://www.w3.org/1999/xlink" width="8" height="10" viewBox="0 0 8 10"><defs><path id="tggca" d="M669.997 336.047c0 1.016-.394 1.818-1.172 2.386-.746.545-1.79.81-3.19.81h-1.024v.315h3.983v1.368h-3.983v2.07h-1.707v-2.07h-.91v-1.333l.19-.035h.72v-.35h-.91v-1.369h.91v-4.842h2.959c2.704 0 4.095 1.026 4.134 3.05zm-5.386 1.757h.872c1.007 0 1.722-.142 2.125-.421l.008-.006c.495-.305.598-.89.598-1.327 0-.56-.188-.975-.574-1.268-.366-.276-1.002-.416-1.89-.416h-1.139z"/></defs><g><g transform="translate(-662 -333)"><use fill="#909090" xlink:href="#tggca"/></g></g></svg>